<svg width="21" height="20" viewBox="0 0 21 20" fill="none" xmlns="http://www.w3.org/2000/svg">
<path fill-rule="evenodd" clip-rule="evenodd" d="M4.38766 18.7501C3.68891 18.7501 3.02516 18.4726 2.52516 17.9789C2.02516 17.4851 1.75391 16.8151 1.75391 16.1164V3.87887C1.75391 3.18012 2.03141 2.51637 2.52516 2.01637C3.01891 1.51637 3.68891 1.24512 4.38766 1.24512H16.6252C17.3239 1.24512 17.9877 1.52262 18.4877 2.01637C18.9877 2.51012 19.2589 3.18012 19.2589 3.87887V16.1164C19.2589 16.8151 18.9814 17.4789 18.4877 17.9789C17.9939 18.4789 17.3239 18.7501 16.6252 18.7501H4.38766ZM15.0752 11.3626H13.2252V17.4751H16.6252C16.8037 17.4756 16.9806 17.4408 17.1457 17.3727C17.3108 17.3046 17.4608 17.2045 17.587 17.0783C17.7133 16.952 17.8134 16.802 17.8815 16.6369C17.9496 16.4718 17.9844 16.2949 17.9839 16.1164V3.87887C17.9841 3.70039 17.949 3.52363 17.8808 3.3587C17.8126 3.19378 17.7125 3.04392 17.5863 2.91772C17.4601 2.79151 17.3102 2.69144 17.1453 2.62321C16.9804 2.55499 16.8036 2.51995 16.6252 2.52012H4.38766C4.0276 2.52111 3.68257 2.66458 3.42797 2.91918C3.17337 3.17378 3.0299 3.51881 3.02891 3.87887V16.1164C3.0299 16.4764 3.17337 16.8215 3.42797 17.0761C3.68257 17.3307 4.0276 17.4741 4.38766 17.4751H11.1877V11.3626H9.15016V9.32512H11.1877V8.23012C11.1877 6.15512 12.1977 5.24262 13.9252 5.24262C14.7339 5.24262 15.1689 5.30137 15.3752 5.33012L15.3877 5.33137V7.28137H14.2127C13.6202 7.28137 13.3402 7.53512 13.2552 8.04637C13.2347 8.17954 13.2251 8.31415 13.2264 8.44887V9.32012H15.3639L15.0727 11.3576L15.0752 11.3626Z" fill="white"/>
</svg>
