<svg width="21" height="20" viewBox="0 0 21 20" fill="none" xmlns="http://www.w3.org/2000/svg">
<path d="M18.8327 10.0003C18.8327 14.6027 15.1017 18.3337 10.4993 18.3337M18.8327 10.0003C18.8327 5.39795 15.1017 1.66699 10.4993 1.66699M18.8327 10.0003H2.16602M10.4993 18.3337C5.89698 18.3337 2.16602 14.6027 2.16602 10.0003M10.4993 18.3337C12.5837 16.0517 13.7683 13.0903 13.8327 10.0003C13.7683 6.91035 12.5837 3.94895 10.4993 1.66699M10.4993 18.3337C8.41495 16.0517 7.23039 13.0903 7.16602 10.0003C7.23039 6.91035 8.41495 3.94895 10.4993 1.66699M2.16602 10.0003C2.16602 5.39795 5.89698 1.66699 10.4993 1.66699" stroke="white" stroke-width="1.2" stroke-linecap="round" stroke-linejoin="round"/>
</svg>
