<svg width="112" height="32" viewBox="0 0 112 32" fill="none" xmlns="http://www.w3.org/2000/svg">
<g clip-path="url(#clip0_350_10591)">
<path d="M23.9929 17.6043H23.9069C23.2062 18.8213 21.5469 19.731 19.568 19.731C17.3309 19.731 14.3318 18.6492 14.3318 15.3914C14.3318 11.2239 19.568 10.6461 23.9314 10.6461V10.3019C23.9314 8.58083 22.481 7.74487 20.7357 7.74487C19.2484 7.74487 17.8226 8.4456 16.9253 9.34303L15.1184 7.21625C16.6918 5.76562 18.9042 5.00342 21.0306 5.00342C26.0333 5.00342 27.2624 8.08909 27.2624 10.8797V19.3868H24.0052V17.6166L23.9929 17.6043ZM23.9314 13.0065H23.1448C20.9323 13.0065 17.8226 13.2647 17.8226 15.33C17.8226 16.67 19.0763 17.0756 20.2686 17.0756C22.6531 17.0756 23.9314 15.7111 23.9314 13.4982V13.0065Z" fill="white"/>
<path d="M50.8498 17.6043H50.7638C50.0632 18.8213 48.4038 19.731 46.4249 19.731C44.1878 19.731 41.1887 18.6492 41.1887 15.3914C41.1887 11.2239 46.4249 10.6461 50.7884 10.6461V10.3019C50.7884 8.58083 49.3257 7.74487 47.5803 7.74487C46.093 7.74487 44.6672 8.4456 43.7699 9.34303L41.9631 7.21625C43.5364 5.76562 45.7489 5.00342 47.8753 5.00342C52.8779 5.00342 54.1071 8.08909 54.1071 10.8797V19.3868H50.8498V17.6166V17.6043ZM50.7884 13.0065H50.0017C47.7892 13.0065 44.6795 13.2647 44.6795 15.33C44.6795 16.67 45.9332 17.0756 47.1255 17.0756C49.5101 17.0756 50.8007 15.7111 50.8007 13.4982V13.0065H50.7884Z" fill="white"/>
<path d="M70.1844 19.387H66.8657V17.1495H66.8042C66.1896 18.551 64.5303 19.8049 62.4653 19.8049C58.827 19.8049 57.3152 17.0143 57.3152 14.1622V5.43384H60.806V13.1787C60.806 14.8384 61.187 16.9037 63.424 16.9037C65.6611 16.9037 66.6813 14.9859 66.6813 13.1173V5.43384H70.1721V19.4116L70.1844 19.387Z" fill="white"/>
<path d="M96.3776 5.00342C100.594 5.00342 103.974 7.94157 103.974 12.3426C103.974 16.7437 100.594 19.7925 96.3776 19.7925C92.1617 19.7925 88.7815 16.7314 88.7815 12.3426C88.7815 7.95386 92.1617 5.00342 96.3776 5.00342ZM96.3776 16.8789C99.1432 16.8789 100.422 14.5186 100.422 12.3426C100.422 10.1667 99.1432 7.85551 96.3776 7.85551C93.612 7.85551 92.3337 10.1544 92.3337 12.3426C92.3337 14.5309 93.612 16.8789 96.3776 16.8789Z" fill="white"/>
<path d="M32.72 19.3869H36.1493V8.19981H40.1687V5.40918H28.9465V8.19981H32.72V19.3869Z" fill="white"/>
<path d="M87.7365 19.387L83.6927 13.2894C85.4872 12.6133 86.7409 11.4331 86.7409 9.40465C86.7409 6.14687 83.6189 5.01587 81.0131 5.01587C76.7603 5.01587 73.8103 6.34357 73.8103 6.34357V19.387H77.2396V14.1499C78.2229 14.1499 79.2677 14.1131 80.2633 14.0147L83.5943 19.387H87.7243H87.7365ZM77.2519 11.7896V8.16301C77.633 8.02778 78.9481 7.6098 80.8042 7.6098C82.1685 7.6098 83.2502 8.11383 83.2502 9.45383C83.2502 11.5191 80.1404 11.7773 77.928 11.7773H77.2642L77.2519 11.7896Z" fill="white"/>
<path d="M7.30114 11.728L13.3608 5.40914H8.87445L3.57682 11.2854H3.49078V0H0V19.3869H3.49078V12.2197H3.57682L9.10799 19.3869H13.7419L7.30114 11.728Z" fill="white"/>
<path d="M0.0490723 25.1893H1.22905V30.7705H4.0438V31.8155H0.0490723V25.177V25.1893Z" fill="white"/>
<path d="M11.5415 29.3936C11.5415 30.9917 10.3861 31.9998 8.87428 31.9998C7.36243 31.9998 6.20703 30.9917 6.20703 29.3936V25.1892H7.38701V29.3444C7.38701 30.1189 7.74347 30.9426 8.87428 30.9426C10.0051 30.9426 10.3616 30.1189 10.3616 29.3444V25.1892H11.5415V29.3936Z" fill="white"/>
<path d="M14.5899 25.1892H16.4337L18.1545 29.9099H18.179L19.8876 25.1892H21.7436V31.8277H20.5759V26.4923H20.5513L18.5355 31.8277H17.712L15.7207 26.4923H15.6962V31.8277H14.5776V25.1892H14.5899Z" fill="white"/>
<path d="M24.8533 25.1892H26.0333V31.8277H24.8533V25.1892Z" fill="white"/>
<path d="M29.1431 25.1892H30.7041L33.7892 30.1558H33.8138V25.1892H34.9938V31.8277H33.4943L30.3476 26.7013H30.323V31.8277H29.1431V25.1892Z" fill="white"/>
<path d="M40.1685 25.1892H41.1887L44.0526 31.8277H42.7006L42.086 30.3033H39.2098L38.6075 31.8277H37.28L40.1685 25.1892ZM41.6681 29.2952L40.6479 26.5907L39.6031 29.2952H41.6681Z" fill="white"/>
<path d="M46.2896 25.1892H48.6004C49.8418 25.1892 51.0464 25.681 51.0464 27.0947C51.0464 28.0536 50.4564 28.6806 49.5222 28.8896L51.2922 31.8277H49.8664L48.3299 29.0125H47.4695V31.8277H46.2896V25.1892ZM48.4283 28.0536C49.092 28.0536 49.8541 27.8938 49.8541 27.0824C49.8541 26.3571 49.1412 26.185 48.5389 26.185H47.4695V28.0536H48.4406H48.4283Z" fill="white"/>
<path d="M53.8242 25.1892H55.0042V31.8277H53.8242V25.1892Z" fill="white"/>
<path d="M60.1544 25.1892H61.1746L64.0385 31.8277H62.6864L62.0718 30.3033H59.1956L58.5933 31.8277H57.2659L60.1544 25.1892ZM61.6539 29.2952L60.6337 26.5907L59.589 29.2952H61.6539Z" fill="white"/>
<path d="M69.6311 26.5785C69.373 26.2465 68.8813 26.0007 68.4142 26.0007C67.8734 26.0007 67.2465 26.2588 67.2465 26.9104C67.2465 27.5251 67.7628 27.6972 68.5126 27.9307C69.3607 28.1889 70.4546 28.57 70.4546 29.8731C70.4546 31.2992 69.3361 31.9876 68.0332 31.9876C67.1728 31.9876 66.2755 31.6557 65.7593 31.041L66.6074 30.2542C66.9393 30.7091 67.5292 30.9795 68.0578 30.9795C68.6109 30.9795 69.2623 30.7091 69.2623 29.996C69.2623 29.283 68.574 29.1109 67.7382 28.8405C66.927 28.5823 66.0666 28.1889 66.0666 26.9596C66.0666 25.6073 67.2957 25.0049 68.488 25.0049C69.1517 25.0049 69.9138 25.2385 70.4177 25.7179L69.6434 26.5662L69.6311 26.5785Z" fill="white"/>
<path d="M108.988 5.72876C110.648 5.72876 112 7.05646 112 8.72838C112 10.4003 110.66 11.6911 108.988 11.6911C107.317 11.6911 105.977 10.388 105.977 8.72838C105.977 7.06875 107.317 5.72876 108.988 5.72876ZM108.988 11.2608C110.39 11.2608 111.521 10.1175 111.521 8.72838C111.521 7.33921 110.39 6.19591 108.988 6.19591C107.587 6.19591 106.456 7.32692 106.456 8.72838C106.456 10.1298 107.587 11.2608 108.988 11.2608ZM107.821 7.03187H109.013C109.64 7.03187 110.267 7.29004 110.267 8.01535C110.267 8.50709 109.959 8.81443 109.492 8.92507L110.402 10.4003H109.664L108.878 8.98654H108.448V10.4003H107.845V7.01958L107.821 7.03187ZM108.915 8.50709C109.259 8.50709 109.652 8.40875 109.652 8.00306C109.652 7.63425 109.296 7.53591 108.976 7.53591H108.423V8.4948H108.915V8.50709Z" fill="white"/>
</g>
<defs>
<clipPath id="clip0_350_10591">
<rect width="112" height="32" fill="white"/>
</clipPath>
</defs>
</svg>
