<svg width="21" height="20" viewBox="0 0 21 20" fill="none" xmlns="http://www.w3.org/2000/svg">
<path d="M10.5026 1.66699C11.7844 1.66744 13.0488 1.96356 14.1975 2.53233C15.3462 3.1011 16.3482 3.92719 17.1255 4.94634C17.9029 5.96549 18.4347 7.15022 18.6796 8.40841C18.9244 9.66659 18.8757 10.9643 18.5373 12.2006C18.1989 13.4369 17.5798 14.5785 16.7283 15.5365C15.8767 16.4946 14.8156 17.2432 13.6276 17.7244C12.4395 18.2055 11.1565 18.406 9.87825 18.3105C8.60004 18.2149 7.3611 17.8257 6.2578 17.1732L2.85467 18.3066C2.76299 18.337 2.66465 18.3413 2.57065 18.319C2.47666 18.2968 2.3907 18.2488 2.3224 18.1805C2.25409 18.1122 2.20613 18.0263 2.18387 17.9323C2.16161 17.8383 2.16592 17.7399 2.19634 17.6482L3.33071 14.2462C2.5814 12.9807 2.18033 11.5394 2.16825 10.0688C2.15617 8.59814 2.5335 7.1505 3.26193 5.87287C3.99035 4.59525 5.04392 3.53315 6.31563 2.79445C7.58734 2.05575 9.0319 1.66677 10.5026 1.66699ZM10.5026 2.70866C9.19725 2.70847 7.91578 3.05869 6.79198 3.72276C5.66818 4.38684 4.74325 5.34041 4.11375 6.48394C3.48426 7.62747 3.17327 8.91901 3.21327 10.2237C3.25326 11.5285 3.64277 12.7985 4.34113 13.9014C4.38253 13.9667 4.40888 14.0404 4.41824 14.1171C4.42761 14.1939 4.41977 14.2718 4.3953 14.3451L3.51405 16.9899L6.15988 16.1087C6.23308 16.0843 6.31077 16.0766 6.38733 16.086C6.46389 16.0953 6.53741 16.1216 6.60259 16.1628C7.55826 16.7673 8.64142 17.1412 9.76646 17.255C10.8915 17.3688 12.0276 17.2194 13.0849 16.8185C14.1423 16.4177 15.092 15.7764 15.8588 14.9455C16.6257 14.1145 17.1888 13.1165 17.5036 12.0304C17.8185 10.9443 17.8764 9.79993 17.6728 8.68762C17.4692 7.57532 17.0098 6.5256 16.3307 5.62143C15.6516 4.71725 14.7716 3.98341 13.7601 3.47789C12.7486 2.97236 11.6334 2.70902 10.5026 2.70866Z" fill="white" stroke="white" stroke-width="0.3"/>
<path d="M7.99199 5.8431C7.87326 5.83789 7.73681 5.83789 7.60037 5.83789C7.4944 5.84146 7.39048 5.86914 7.29586 5.91699C7.20124 5.96485 7.1182 6.03277 7.05252 6.11602C6.86504 6.33581 6.33594 6.87122 6.33594 7.95664C6.33594 9.04414 7.07023 10.0962 7.17334 10.2421C7.27541 10.3879 8.619 12.6171 10.676 13.5754C11.0564 13.7518 11.4462 13.9073 11.8436 14.041C12.3342 14.2087 12.782 14.1858 13.1362 14.1306C13.5309 14.0671 14.3485 13.5952 14.5204 13.0785C14.6902 12.5639 14.6902 12.1223 14.6381 12.0285C14.5881 11.9368 14.4506 11.8806 14.2444 11.7681C14.0402 11.6587 13.031 11.1254 12.8435 11.0525C12.656 10.9764 12.5185 10.9421 12.3821 11.1618C12.2446 11.3837 11.854 11.8827 11.7332 12.0285C11.6155 12.1733 11.4947 12.1941 11.2906 12.0837C11.0843 11.9743 10.425 11.74 9.64075 10.9858C9.03249 10.4014 8.619 9.67539 8.50131 9.4556C8.38049 9.23372 8.48777 9.11601 8.58984 9.00456C8.68358 8.90664 8.79606 8.74831 8.89813 8.6181C9.0002 8.49102 9.03562 8.39831 9.10436 8.25039C9.17102 8.10352 9.13769 7.97331 9.08561 7.86393C9.03458 7.75456 8.62421 6.66393 8.45339 6.22122C8.28571 5.79102 8.11698 5.85143 7.99199 5.8431Z" fill="white"/>
</svg>
